
<svg version="1.1" id="Layer_1" xmlns="http://www.w3.org/2000/svg" xmlns:xlink="http://www.w3.org/1999/xlink" x="0px" y="0px"
	 viewBox="0 0 399.6 109.7" style="enable-background:new 0 0 399.6 109.7;" xml:space="preserve">
<style type="text/css">
	.st0{fill:url(#SVGID_1_);}
	.st1{fill:none;}
	.st2{fill:#FFD35C;}
</style>
<title>Asset 1</title>
<linearGradient id="SVGID_1_" gradientUnits="userSpaceOnUse" x1="111.9118" y1="9.7484" x2="11.2211" y2="111.5898">
	<stop  offset="9.056713e-02" style="stop-color:#5347A6"/>
	<stop  offset="0.4115" style="stop-color:#5347A6"/>
	<stop  offset="1" style="stop-color:#6500AF"/>
</linearGradient>
<path class="st0" d="M80.2,108.9c-0.3,0-0.6-0.1-0.9-0.2L54.4,94.3l-24.9,14.4c-0.3,0.2-0.6,0.2-0.9,0.2c-0.3,0-0.6-0.1-0.9-0.2
	L1.9,93.7C1.4,93.4,1,92.8,1,92.1V62.4c0-0.7,0.4-1.3,0.9-1.6l24.9-14.4V17.6c0-0.7,0.4-1.3,0.9-1.6L53.5,1.1
	c0.3-0.2,0.6-0.2,0.9-0.2c0.3,0,0.6,0.1,0.9,0.2L81.1,16c0.6,0.3,0.9,0.9,0.9,1.6v28.8l0,0l24.8,14.3c0.6,0.3,0.9,0.9,0.9,1.6v29.8
	c0,0.7-0.4,1.3-0.9,1.6l-25.8,14.9C80.8,108.8,80.5,108.9,80.2,108.9z M80.2,104.9l19-11H61.2L80.2,104.9z M28.6,104.9l19-11H9.6
	L28.6,104.9z M102.6,90.2L80.4,51L57.8,90.2H102.6z M51,90.2L28.8,51L6.2,90.2H51z M4.7,85.5l19-33l-19,11V85.5z M56.3,85.5l19-33
	l-19,11V85.5z M104.1,85.5v-22L85.6,52.8L104.1,85.5z M52.5,85.5v-22L34,52.8L52.5,85.5z M54.4,60.1l19-11H35.4L54.4,60.1z
	 M76.8,45.4L54.6,6.6L32,45.4H76.8z M30.5,40.7L49.8,7.5L30.5,18.7V40.7z M78.3,40.7V18.7L59.5,7.8L78.3,40.7z"/>
<rect x="82.1" y="16.6" class="st1" width="7.8" height="31.6"/>
<g>
	<g id="Layer_1-2_1_">
		<path class="st2" d="M187.9,91c0,1.2-0.8,2.2-1.9,2.5c-0.5,0.2-1,0.3-1.5,0.3c-1.1-0.1-2.1-0.9-2.5-1.9l-6.2-14.6h-31.6l-6.1,14.6
			c-0.3,1.1-1.4,1.9-2.5,1.9c-0.5,0-1-0.1-1.5-0.3c-1.1-0.4-1.8-1.4-1.9-2.5c0-0.5,0.1-1,0.3-1.5l23.9-57.4c0.5-1.5,1.9-2.4,3.5-2.3
			h0.3c1.5-0.1,2.9,0.9,3.2,2.3l24.1,57.4C187.8,90,187.9,90.5,187.9,91 M146.8,71.2h26.6l-13.3-31.8L146.8,71.2z"/>
		<path class="st2" d="M198.1,90.8V32.7c0-2,1-3,3-3c2.1,0,3,1,3,3v58.1c0,2-1,3-3,3S198.1,92.8,198.1,90.8"/>
		<path class="st2" d="M263.7,90.9c0,0.9-0.5,1.8-1.3,2.3c-0.5,0.5-1.2,0.8-1.9,0.9c-1-0.1-1.8-0.6-2.4-1.4l-25-31l-6.3,6.5v22.6
			c0,2-1,3-3,3c-1.5,0.2-2.9-0.8-3.1-2.3c0-0.2,0-0.5,0-0.7v-58c0-2,1-3,3-3s3,1,3,3v26.6l27.8-28.6c0.9-1.2,2.6-1.4,3.8-0.5
			c0.2,0.1,0.3,0.3,0.5,0.4c0.7,0.5,1.1,1.3,1.1,2.2c0,0.8-0.4,1.6-1,2.2l-21.6,22.2l25.5,31.5C263.4,89.4,263.7,90.1,263.7,90.9"/>
		<path class="st2" d="M276.9,88.8c-3.4-3.4-5-8.6-5-15.8V50.5c0-7.3,1.7-12.5,5-15.9c3.4-3.3,8.6-5,15.8-4.9h11.8
			c7.2,0,12.4,1.7,15.8,5s5,8.6,5,15.9V73c0,7.2-1.7,12.5-5,15.8c-3.4,3.4-8.6,5-15.8,5h-11.8C285.5,93.8,280.2,92.1,276.9,88.8
			 M304.5,87.7c3,0.1,6-0.3,8.8-1.4c2.1-0.9,3.7-2.5,4.6-4.6c1.1-2.8,1.5-5.8,1.4-8.8V50.6c0.1-3-0.4-6-1.4-8.8
			c-0.9-2.1-2.5-3.7-4.6-4.6c-2.8-1.1-5.8-1.5-8.8-1.4h-11.8c-3-0.2-6,0.3-8.8,1.3c-2,0.9-3.7,2.5-4.6,4.6c-1,2.8-1.5,5.8-1.4,8.8
			V73c-0.1,3,0.4,6,1.4,8.8c0.9,2.1,2.5,3.7,4.6,4.6c2.8,1.1,5.8,1.6,8.8,1.4L304.5,87.7z"/>
		<path class="st2" d="M391.9,32.8v58c0,2-1,3-3,3c-1.3-0.1-2.4-0.7-3.1-1.8l-39.4-50.6v49.4c0,2-1,3-3,3s-3-1-3-3v-58c0-2,1-3,3-3
			c1.2,0.1,2.4,0.7,3,1.8l39.5,50.7V32.8c0-2,1-3,3-3S391.9,30.7,391.9,32.8"/>
	</g>
</g>
</svg>
