<svg xmlns="http://www.w3.org/2000/svg" width="93" height="24" viewBox="0 0 93 24">
    <g fill="#3B3B3B" fill-rule="evenodd">
        <path d="M6.53 0L.75 3.375 6.53 6.75l5.89-3.375zM8.015 17.421v6.526l7.592-4.315v-6.527zM13.71 5.316v6.526l-5.695 3.263V8.58zM0 11.842l5.695 3.263V8.58L0 5.316zM0 20.684l5.695 3.263v-6.526L0 14.158zM33.403 9.37v-.31c0-.927-.51-1.441-1.427-1.441H27.39v3.192h4.586c.917 0 1.427-.515 1.427-1.442zm3.363 5.251v1.339c0 2.471-1.223 3.707-3.67 3.707h-7.744c-.306 0-.51-.206-.51-.515V5.765c0-.309.204-.515.51-.515h6.93c2.445 0 3.668 1.236 3.668 3.707v.412c0 1.957-1.426 2.369-1.426 2.369v.103s2.242.412 2.242 2.78zm-2.548 1.236V14.62c0-.927-.51-1.442-1.427-1.442H27.39v4.12h5.401c.917 0 1.427-.515 1.427-1.442zM44 17.813c1.019 0 1.732-.72 1.732-1.75v-.721H42.37c-.713 0-1.12.412-1.12 1.133v.206c0 .72.407 1.132 1.12 1.132h1.631zm3.974-5.56v6.9c0 .308-.203.514-.51.514h-1.222c-.306 0-.51-.206-.51-.515v-.515h-.102s-.509 1.236-2.038 1.236h-1.528c-2.038 0-3.057-1.03-3.057-3.09v-.308c0-2.06 1.019-3.09 3.057-3.09h3.668v-1.03c0-.823-.51-1.338-1.324-1.338h-1.427c-.713 0-1.121.412-1.121 1.133 0 .309-.204.514-.51.514h-1.223c-.305 0-.51-.205-.51-.514 0-2.06 1.122-3.193 3.262-3.193h1.834c2.14 0 3.261 1.133 3.261 3.296zm12.127 0c0-2.163-1.12-3.296-3.26-3.296H55.21c-1.529 0-2.038 1.236-2.038 1.236h-.102v-.515c0-.309-.204-.515-.51-.515h-1.223c-.305 0-.51.206-.51.515v9.474c0 .31.205.515.51.515h1.223c.306 0 .51-.206.51-.515v-6.385c0-1.03.713-1.75 1.732-1.75h1.733c.815 0 1.324.515 1.324 1.339v6.796c0 .31.204.515.51.515h1.223c.306 0 .51-.206.51-.515v-6.9zm9.783 4.222c0 .824-.509 1.338-1.324 1.338h-2.14c-.816 0-1.325-.514-1.325-1.338v-4.12c0-.823.51-1.338 1.325-1.338h2.14c.815 0 1.324.515 1.324 1.339v.308c0 .31.204.515.51.515h1.223c.306 0 .51-.206.51-.515v-.411c0-2.163-1.122-3.296-3.262-3.296h-2.751c-2.14 0-3.261 1.133-3.261 3.296v4.325c0 2.162 1.12 3.295 3.26 3.295h2.752c2.14 0 3.261-1.133 3.261-3.295v-.412c0-.31-.203-.515-.51-.515h-1.222c-.306 0-.51.206-.51.515v.309zm6.93-4.12v4.12c0 .824.51 1.338 1.325 1.338h2.344c.815 0 1.325-.514 1.325-1.338v-4.12c0-.823-.51-1.338-1.325-1.338H78.14c-.815 0-1.325.515-1.325 1.339zm-2.242 4.223v-4.325c0-2.163 1.121-3.296 3.261-3.296h2.956c2.14 0 3.26 1.133 3.26 3.296v4.325c0 2.162-1.12 3.295-3.26 3.295h-2.956c-2.14 0-3.26-1.133-3.26-3.295zm16.611-7.62a2.19 2.19 0 0 0-2.038 1.235h-.102v-.515c0-.309-.204-.515-.51-.515h-1.222c-.306 0-.51.206-.51.515v9.474c0 .31.204.515.51.515h1.223c.305 0 .51-.206.51-.515V12.87c0-1.03.712-1.75 1.732-1.75h1.426c.306 0 .51-.206.51-.515V9.472c0-.309-.204-.515-.51-.515h-1.019z"/>
    </g>
</svg>
