<svg width="70" height="70" viewBox="0 0 70 70" fill="none" xmlns="http://www.w3.org/2000/svg"><title>View IQ Signals</title><path d="M0 4C0 1.79086 1.84353 0 4.11765 0H65.8824C68.1565 0 70 1.79086 70 4V66C70 68.2091 68.1565 70 65.8824 70H4.11765C1.84353 70 0 68.2091 0 66V4Z" fill="#000000"></path><path clip-rule="evenodd" d="M65.8824 1.5H4.11765C2.69633 1.5 1.54412 2.61929 1.54412 4V66C1.54412 67.3807 2.69633 68.5 4.11765 68.5H65.8824C67.3037 68.5 68.4559 67.3807 68.4559 66V4C68.4559 2.61929 67.3037 1.5 65.8824 1.5ZM4.11765 0C1.84353 0 0 1.79086 0 4V66C0 68.2091 1.84353 70 4.11765 70H65.8824C68.1565 70 70 68.2091 70 66V4C70 1.79086 68.1565 0 65.8824 0H4.11765Z" fill="#ABABAB" fill-rule="evenodd"></path><path d="M36.7411 14.1702C45.2466 14.1702 50.2199 19.064 50.2199 25.9171C50.2199 30.5671 47.4502 33.8702 43.5448 35.2921C48.6469 36.5171 51.6064 40.9171 51.6064 45.7546C51.6064 52.6077 45.9993 57.564 37.8123 57.564H22.1942V14.1702H36.7411ZM36.0494 33.1233C41.026 33.1233 43.9855 30.2483 43.9855 26.2108C43.9855 22.1109 40.9005 19.4171 35.7985 19.4171H28.3642V33.1233H36.0494ZM36.9309 52.2858C41.9074 52.2858 45.2948 49.5921 45.2948 45.3733C45.2948 41.2108 42.5862 38.2733 37.1721 38.2733H28.3642V52.2858H36.9309Z" fill="#FFFFFF"></path></svg>