<?xml version="1.0" encoding="UTF-8" standalone="no"?>
<svg
   xmlns:dc="http://purl.org/dc/elements/1.1/"
   xmlns:cc="http://creativecommons.org/ns#"
   xmlns:rdf="http://www.w3.org/1999/02/22-rdf-syntax-ns#"
   xmlns:svg="http://www.w3.org/2000/svg"
   xmlns="http://www.w3.org/2000/svg"
   xmlns:sodipodi="http://sodipodi.sourceforge.net/DTD/sodipodi-0.dtd"
   xmlns:inkscape="http://www.inkscape.org/namespaces/inkscape"
   class="thumb"
   width="4502"
   height="650"
   viewBox="0 0 540.24 78"
   version="1.1"
   id="svg104"
   sodipodi:docname="logo.svg"
   inkscape:version="0.92.3 (2405546, 2018-03-11)">
  <metadata
     id="metadata108">
    <rdf:RDF>
      <cc:Work
         rdf:about="">
        <dc:format>image/svg+xml</dc:format>
        <dc:type
           rdf:resource="http://purl.org/dc/dcmitype/StillImage" />
        <dc:title></dc:title>
      </cc:Work>
    </rdf:RDF>
  </metadata>
  <sodipodi:namedview
     pagecolor="#ffffff"
     bordercolor="#666666"
     borderopacity="1"
     objecttolerance="10"
     gridtolerance="10"
     guidetolerance="10"
     inkscape:pageopacity="0"
     inkscape:pageshadow="2"
     inkscape:window-width="1920"
     inkscape:window-height="1017"
     id="namedview106"
     showgrid="false"
     inkscape:zoom="0.25000001"
     inkscape:cx="2414.3706"
     inkscape:cy="597.59805"
     inkscape:window-x="1912"
     inkscape:window-y="-8"
     inkscape:window-maximized="1"
     inkscape:current-layer="svg104"
     inkscape:measure-start="1411,75"
     inkscape:measure-end="1554,5" />
  <defs
     id="defs4">
    <style
       type="text/css"
       id="style2" />
  </defs>
  <g
     transform="matrix(0.7165,0,0,0.7165,-62.051007,-6.2970868)"
     id="g102">
    <g
       transform="matrix(0.8892,0,0,0.9056,106.8759,29.5288)"
       id="g35">
      <svg
         width="43.203655"
         height="43.203655"
         viewBox="27.398172 27.398172 43.203656 43.203656"
         version="1.1"
         id="svg33">
        <defs
           id="defs9">
          <linearGradient
             x1="32.398212"
             y1="49"
             x2="65.601784"
             y2="49"
             id="linearGradientSjlz3vnhc4"
             gradientUnits="userSpaceOnUse"
             gradientTransform="translate(1.2067574,0.03703582)">
            <stop
               offset="100%"
               stop-color="#002868"
               id="stop6" />
          </linearGradient>
        </defs>
        <g
           id="g11" />
        <g
           id="g13" />
        <g
           id="g15" />
        <g
           id="g17" />
        <g
           id="g19" />
        <g
           id="g21" />
        <g
           id="g23" />
        <g
           id="g25" />
        <g
           id="g27" />
        <g
           id="g31">
          <path
             d="m 63.806757,32.437035 h -27.2 a 2.9,2.9 0 0 0 -3,3 v 27.2 a 2.9,2.9 0 0 0 3,3 h 27.2 a 2.9,2.9 0 0 0 3,-3 v -27.2 a 2.9,2.9 0 0 0 -3,-3 z m -3,27.2 h -21.2 v -21.2 h 21.2 z"
             id="path29"
             inkscape:connector-curvature="0"
             style="fill:url(#linearGradientSjlz3vnhc4)" />
        </g>
      </svg>
    </g>
    <g
       transform="matrix(0.8892,0,0,0.9056,82.4237,4.6237)"
       id="g68">
      <svg
         width="98.599998"
         height="98.599998"
         viewBox="-0.3 -0.3 98.6 98.6"
         version="1.1"
         id="svg66">
        <defs
           id="defs42">
          <linearGradient
             x1="4.6999998"
             y1="49"
             x2="93.300003"
             y2="49"
             id="linearGradientSjlz3vnhc9"
             gradientUnits="userSpaceOnUse"
             gradientTransform="matrix(1.0204067,0,0,1.0019272,-0.20755872,-0.1099229)">
            <stop
               offset="50%"
               stop-color="#bf0a30"
               id="stop37" />
            <stop
               offset="100%"
               stop-color="#bf0a30"
               id="stop39" />
          </linearGradient>
        </defs>
        <g
           id="g44" />
        <g
           id="g46" />
        <g
           id="g48" />
        <g
           id="g50" />
        <g
           id="g52" />
        <g
           id="g54" />
        <g
           id="g56" />
        <g
           id="g58" />
        <g
           id="g60" />
        <g
           id="g64">
          <path
             d="m 91.935128,40.367935 a 3.1632596,3.1059742 0 0 0 3.061217,-3.005782 3.0612188,3.0057815 0 0 0 -3.061217,-3.005781 H 81.11882 v -8.11561 A 8.1632499,8.0154173 0 0 0 72.95557,18.225345 H 64.690281 V 7.6049163 A 3.0612188,3.0057815 0 0 0 61.62906,4.5991348 3.1632596,3.1059742 0 0 0 58.56784,7.6049163 V 18.225345 H 41.016854 V 7.6049163 A 3.1632596,3.1059742 0 0 0 37.955638,4.5991348 3.0612188,3.0057815 0 0 0 34.894417,7.6049163 V 18.225345 h -8.265289 a 8.1632499,8.0154173 0 0 0 -8.163252,8.015417 v 8.11561 H 7.6495696 a 3.0612188,3.0057815 0 0 0 -3.0612188,3.005781 3.1632596,3.1059742 0 0 0 3.0612188,3.005782 H 18.465876 v 14.02698 H 7.6495696 a 3.1632596,3.1059742 0 0 0 -3.0612188,3.005782 3.0612188,3.0057815 0 0 0 3.0612188,3.005781 H 18.465876 v 11.321777 a 8.1632499,8.0154173 0 0 0 8.163252,8.015418 h 8.265289 v 10.620428 a 3.0612188,3.0057815 0 0 0 3.061221,3.005781 3.1632596,3.1059742 0 0 0 3.061216,-3.005781 V 79.743673 H 58.56784 v 10.620428 a 3.1632596,3.1059742 0 0 0 3.06122,3.005781 3.0612188,3.0057815 0 0 0 3.061221,-3.005781 V 79.743673 h 8.265289 a 8.1632499,8.0154173 0 0 0 8.16325,-8.015418 V 60.406478 h 10.816308 a 3.0612188,3.0057815 0 0 0 3.061217,-3.005781 3.1632596,3.1059742 0 0 0 -3.061217,-3.005782 H 81.11882 V 40.367935 Z M 74.996382,71.728255 A 2.0408128,2.0038543 0 0 1 72.95557,73.73211 H 26.629128 A 2.0408128,2.0038543 0 0 1 24.588317,71.728255 V 26.240762 a 2.0408128,2.0038543 0 0 1 2.040811,-2.003854 H 72.95557 a 2.0408128,2.0038543 0 0 1 2.040812,2.003854 z"
             id="path62"
             inkscape:connector-curvature="0"
             style="fill:url(#linearGradientSjlz3vnhc9);stroke-width:1.01112425" />
        </g>
      </svg>
    </g>
    <g
       transform="matrix(0.911,0,0,0.8808,172.5955,0.7517)"
       id="g83">
      <svg
         width="183"
         height="183"
         version="1.1"
         id="svg81">
        <defs
           id="defs73">
          <linearGradient
             x1="3.2926164"
             y1="-52.895622"
             x2="113.11106"
             y2="-52.895622"
             id="linearGradientSjlz3vnhcn"
             gradientTransform="scale(1.5489202,0.64561106)"
             gradientUnits="userSpaceOnUse">
            <stop
               offset="100%"
               stop-color="#bf0a30"
               id="stop70" />
          </linearGradient>
        </defs>
        <g
           transform="translate(0,92.25)"
           id="g77">
          <path
             d="m 46.4,-45.1 c 0.120153,-2.643389 -0.402578,-5.479921 -1.15,-7.75 v 0 0 c -0.766667,-2.233333 -2.283333,-4.216667 -4.55,-5.95 v 0 0 c -2.266667,-1.733333 -5.133333,-2.6 -8.6,-2.6 v 0 0 c -5.4,0 -9.5,2.333333 -12.3,7 v 0 0 c -2.8,4.666667 -4.2,11.35 -4.2,20.05 v 0 0 c 0,8.7 1.5,15.366667 4.5,20 v 0 0 c 3,4.6333333 7.266667,6.95 12.8,6.95 v 0 0 c 5.533333,0 11.4,-2.5666667 17.6,-7.7 v 0 0 c 2.666667,1.733333 4.333333,3.9 5,6.5 v 0 0 c -2.866667,2.9333333 -6.466667,5.3166667 -10.8,7.15 v 0 0 C 40.366667,0.38333333 35.85,1.3 31.15,1.3 v 0 0 c -4.7,0 -8.766667,-0.98333333 -12.2,-2.95 v 0 0 C 15.516667,-3.6166667 12.8,-6.2666667 10.8,-9.6 v 0 0 C 7,-16.2 5.1,-24.266667 5.1,-33.8 v 0 0 c 0,-11.8 2.5666667,-20.716667 7.7,-26.75 v 0 0 c 5.133333,-6.033333 11.433333,-9.05 18.9,-9.05 v 0 0 c 7.466667,0 13.416667,1.933333 17.85,5.8 v 0 0 c 4.433333,3.866667 6.65,8.4 6.65,13.6 v 0 0 c 0,3.8 -1.9,5.7 -5.7,5.7 v 0 0 c -1.2,0 -2.566667,-0.2 -4.1,-0.6 z m 23.1,-22.6 0.7,-0.7 20.2,-0.3 v 0 c 6.866667,0 12.38333,1.9 16.55,5.7 v 0 0 c 4.16667,3.8 6.25,9.25 6.25,16.35 v 0 0 c 0,7.1 -2.08333,12.566667 -6.25,16.4 v 0 0 c -4.16667,3.833333 -9.683333,5.75 -16.55,5.75 v 0 H 79.5 V 0 0 c -1.333333,0.26666667 -3,0.4 -5,0.4 v 0 0 c -2,0 -3.666667,-0.13333333 -5,-0.4 v 0 z m 10,7 v 28.3 l 10.7,-0.1 v 0 c 3.2,0 5.783333,-0.783333 7.75,-2.35 v 0 0 c 1.966667,-1.566667 3.25,-3.316667 3.85,-5.25 v 0 0 c 0.6,-1.933333 0.9,-4.466667 0.9,-7.6 v 0 0 c 0,-3.133333 -0.93333,-6.066667 -2.8,-8.8 v 0 0 c -1.866667,-2.733333 -5.166667,-4.1 -9.9,-4.1 v 0 0 c -4.733333,0 -8.233333,-0.03333 -10.5,-0.1 z m 95.7,-7.6 v 0 44.5 0 c 0,8.066667 -2.25,14.2666667 -6.75,18.6 v 0 0 c -4.5,4.33333333 -10.58333,6.5 -18.25,6.5 v 0 0 c -7.66667,0 -13.75,-2.16666667 -18.25,-6.5 v 0 0 c -4.5,-4.3333333 -6.75,-10.533333 -6.75,-18.6 v 0 -44.3 l 0.6,-0.6 h 3.8 v 0 c 2.06667,0 3.51667,0.5 4.35,1.5 v 0 0 c 0.83333,1 1.25,2.633333 1.25,4.9 v 0 38.4 0 c 0,5.6 1.26667,9.85 3.8,12.75 v 0 0 c 2.53333,2.9 6.26667,4.35 11.2,4.35 v 0 0 c 4.93333,0 8.68333,-1.45 11.25,-4.35 v 0 0 c 2.56667,-2.9 3.85,-7.15 3.85,-12.75 v 0 -44.4 0 c 1.26667,-0.266667 2.91667,-0.4 4.95,-0.4 v 0 0 c 2.03333,0 3.68333,0.133333 4.95,0.4 z"
             id="path75"
             inkscape:connector-curvature="0"
             style="fill:url(#linearGradientSjlz3vnhcn)"
             sodipodi:nodetypes="cccccccccccccccccccccccccccccccccccccccccccccccccccccccccccccccccccccccccccccccccccccccccccccccccccccccccccccccccccccccccccccccccccccccccccccccccc" />
        </g>
        <path
           style="fill:none"
           id="path79"
           d=""
           inkscape:connector-curvature="0" />
      </svg>
    </g>
    <g
       transform="matrix(0.911,0,0,0.8808,338.5099,0.7517)"
       id="g100">
      <svg
         width="552"
         height="183"
         version="1.1"
         id="svg98">
        <defs
           id="defs90">
          <linearGradient
             x1="3.3277552"
             y1="-94.411995"
             x2="199.33977"
             y2="-94.411995"
             id="linearGradientSjlz3vnhcp"
             gradientTransform="scale(2.7646264,0.36171252)"
             gradientUnits="userSpaceOnUse">
            <stop
               offset="0%"
               stop-color="#002868"
               id="stop85" />
            <stop
               offset="100%"
               stop-color="#002868"
               id="stop87" />
          </linearGradient>
        </defs>
        <g
           transform="translate(0,92.25)"
           id="g94">
          <path
             d="m 19,-53.4 v 14.8 l 6.2,-0.1 h 19.2 v 0 c 0.333333,1.533333 0.5,2.933333 0.5,4.2 v 0 0 c 0,1.266667 -0.166667,2.666667 -0.5,4.2 v 0 H 25.2 v 0 c -2.6,0 -4.666667,-0.03333 -6.2,-0.1 v 0 17.4 0 c 0,0.533333 -0.01667,1.316667 -0.05,2.35 v 0 0 C 18.91667,-9.6166667 18.9,-8.8 18.9,-8.2 v 0 0 c 1.866667,-0.2 4.033333,-0.3 6.5,-0.3 v 0 h 26.2 v 0 c 0,1.7333333 -0.06667,3.0333333 -0.2,3.9 v 0 0 C 50.8,-1.4666667 48.666667,0.1 45,0.1 v 0 H 14.9 v 0 c -1.733333,0 -3.116667,-0.55 -4.15,-1.65 v 0 0 C 9.7166667,-2.65 9.2,-4.1666667 9.2,-6.1 v 0 -61.6 l 0.6,-0.6 h 39.9 v 0 c 0.2,1 0.3,2.316667 0.3,3.95 v 0 0 c 0,1.633333 -0.233333,3.15 -0.7,4.55 v 0 H 25.2 v 0 c -2.666667,0 -4.766667,-0.03333 -6.3,-0.1 v 0 z m 45.1,53.3 v 0 l 5.3,-68.2 v 0 c 1.533333,-0.266667 3.733333,-0.4 6.6,-0.4 v 0 0 c 2.866667,0 5.033333,0.133333 6.5,0.4 v 0 l 10,32.2 v 0 c 0.533333,1.533333 1.266667,4.2 2.2,8 v 0 0 c 0.933333,3.8 1.5,6.333333 1.7,7.6 v 0 H 97 v 0 c 0.666667,-4.2 2,-9.4 4,-15.6 v 0 l 9.9,-32.2 v 0 c 1.66667,-0.266667 3.86667,-0.4 6.6,-0.4 v 0 0 c 2.73333,0 4.9,0.133333 6.5,0.4 v 0 l 5.3,68.2 v 0 c -1.4,0.4 -3.01667,0.6 -4.85,0.6 v 0 0 c -1.83333,0 -3.38333,-0.13333333 -4.65,-0.4 v 0 l -2.5,-37.7 v 0 c -0.46667,-7.533333 -0.73333,-14.2 -0.8,-20 v 0 h -0.6 l -14.1,47.1 v 0 c -1.4,0.266667 -3.116667,0.4 -5.15,0.4 v 0 0 c -2.033333,0 -3.683333,-0.133333 -4.95,-0.4 v 0 L 77.5,-57.6 h -0.6 v 0 c -0.4,11.466667 -0.666667,18.133333 -0.8,20 v 0 L 73.7,0.1 v 0 c -1.333333,0.26666667 -2.933333,0.4 -4.8,0.4 v 0 0 c -1.866667,0 -3.466667,-0.2 -4.8,-0.6 z m 91.8,-53.3 v 14.8 l 6.2,-0.1 h 19.2 v 0 c 0.33333,1.533333 0.5,2.933333 0.5,4.2 v 0 0 c 0,1.266667 -0.16667,2.666667 -0.5,4.2 v 0 h -19.2 v 0 c -2.6,0 -4.66667,-0.03333 -6.2,-0.1 v 0 17.4 0 c 0,0.533333 -0.0167,1.316667 -0.05,2.35 v 0 0 c -0.0333,1.0333333 -0.05,1.85 -0.05,2.45 v 0 0 c 1.86667,-0.2 4.03333,-0.3 6.5,-0.3 v 0 h 26.2 v 0 c 0,1.7333333 -0.0667,3.0333333 -0.2,3.9 v 0 0 c -0.6,3.1333333 -2.73333,4.7 -6.4,4.7 v 0 h -30.1 v 0 c -1.73333,0 -3.11667,-0.55 -4.15,-1.65 v 0 0 c -1.03333,-1.1 -1.55,-2.6166667 -1.55,-4.55 v 0 -61.6 l 0.6,-0.6 h 39.9 v 0 c 0.2,1 0.3,2.316667 0.3,3.95 v 0 0 c 0,1.633333 -0.23333,3.15 -0.7,4.55 v 0 h -24.1 v 0 c -2.66667,0 -4.76667,-0.03333 -6.3,-0.1 v 0 z m 46.7,-14.3 0.7,-0.7 21.2,-0.3 v 0 c 7,0 12.5,1.783333 16.5,5.35 v 0 0 c 4,3.566667 6,8.583333 6,15.05 v 0 0 c 0,4.466667 -1.2,8.3 -3.6,11.5 v 0 0 c -2.4,3.2 -5.5,5.433333 -9.3,6.7 v 0 0 c 3,1.066667 5.33333,3.866667 7,8.4 v 0 l 4.6,12.1 v 0 c 1.33333,3.5333333 2.8,5.9333333 4.4,7.2 v 0 0 c -1.33333,2.06666667 -3.56667,3.1 -6.7,3.1 v 0 0 c -1.8,0 -3.16667,-0.48333333 -4.1,-1.45 v 0 0 c -0.93333,-0.9666667 -1.8,-2.55 -2.6,-4.75 v 0 l -5.2,-13.9 v 0 c -1,-2.733333 -2.25,-4.8 -3.75,-6.2 v 0 0 c -1.5,-1.4 -3.68333,-2.1 -6.55,-2.1 v 0 h -8.6 V 0 0 c -1.33333,0.26666667 -3,0.4 -5,0.4 v 0 0 c -2,0 -3.66667,-0.13333333 -5,-0.4 v 0 z m 10,6.9 v 0 25.1 0 c 3.93333,-0.2 7.98333,-0.3 12.15,-0.3 v 0 0 c 4.16667,0 7.18333,-1.166667 9.05,-3.5 v 0 0 c 1.86667,-2.333333 2.8,-5.266667 2.8,-8.8 v 0 0 c 0,-8.266667 -4.16667,-12.4 -12.5,-12.4 v 0 0 c -5.4,0 -9.23333,-0.03333 -11.5,-0.1 z m 75.8,25.2 v 0 h 15.4 v 0 c 2.6,0 4.45,0.55 5.55,1.65 v 0 0 c 1.1,1.1 1.65,2.75 1.65,4.95 v 0 26 0 c -7.46667,2.86666667 -15.63333,4.3 -24.5,4.3 v 0 0 c -5,0 -9.36667,-0.95 -13.1,-2.85 v 0 0 c -3.73333,-1.9 -6.63333,-4.5166667 -8.7,-7.85 v 0 0 c -4.2,-6.533333 -6.3,-14.633333 -6.3,-24.3 v 0 0 c 0,-6.133333 0.83333,-11.566667 2.5,-16.3 v 0 0 c 1.66667,-4.733333 3.93333,-8.466667 6.8,-11.2 v 0 0 c 5.66667,-5.6 12.33333,-8.4 20,-8.4 v 0 0 c 9.13333,0 16.86667,2.466667 23.2,7.4 v 0 0 c -0.53333,3.133333 -2.2,5.633333 -5,7.5 v 0 0 c -5.4,-4.2 -11.5,-6.3 -18.3,-6.3 v 0 0 c -5.6,0 -10.13333,2.2 -13.6,6.6 v 0 0 c -3.46667,4.4 -5.2,11.333333 -5.2,20.8 v 0 0 c 0,17.666667 6.5,26.5 19.5,26.5 v 0 0 c 4.66667,0 9.03333,-0.6 13.1,-1.8 v 0 -11.7 0 c 0,-2.933333 0.0333,-5.033333 0.1,-6.3 v 0 h -9.2 v 0 c -3.13333,0 -4.7,-1.5 -4.7,-4.5 v 0 0 c 0,-1.2 0.26667,-2.6 0.8,-4.2 z m 48.1,-17.8 v 14.8 l 6.2,-0.1 h 19.2 v 0 c 0.33333,1.533333 0.5,2.933333 0.5,4.2 v 0 0 c 0,1.266667 -0.16667,2.666667 -0.5,4.2 v 0 h -19.2 v 0 c -2.6,0 -4.66667,-0.03333 -6.2,-0.1 v 0 17.4 0 c 0,0.533333 -0.0167,1.316667 -0.05,2.35 v 0 0 c -0.0333,1.0333333 -0.05,1.85 -0.05,2.45 v 0 0 c 1.86667,-0.2 4.03333,-0.3 6.5,-0.3 v 0 h 26.2 v 0 c 0,1.7333333 -0.0667,3.0333333 -0.2,3.9 v 0 0 c -0.6,3.1333333 -2.73333,4.7 -6.4,4.7 v 0 h -30.1 v 0 c -1.73333,0 -3.11667,-0.55 -4.15,-1.65 v 0 0 c -1.03333,-1.1 -1.55,-2.6166667 -1.55,-4.55 v 0 -61.6 l 0.6,-0.6 h 39.9 v 0 c 0.2,1 0.3,2.316667 0.3,3.95 v 0 0 c 0,1.633333 -0.23333,3.15 -0.7,4.55 v 0 h -24.1 v 0 c -2.66667,0 -4.76667,-0.03333 -6.3,-0.1 v 0 z m 55.6,-3.1 v 0 h -0.4 v 0 c 0.53333,9.066667 0.8,17.033333 0.8,23.9 v 0 V 0 0 c -1.53333,0.26666667 -3.08333,0.4 -4.65,0.4 v 0 0 c -1.56667,0 -3.11667,-0.13333333 -4.65,-0.4 v 0 -68.2 0 c 1.86667,-0.333333 3.91667,-0.5 6.15,-0.5 v 0 0 c 2.23333,0 4.18333,0.133333 5.85,0.4 v 0 l 21.8,42.7 v 0 c 1,1.933333 2.26667,4.583333 3.8,7.95 v 0 0 c 1.53333,3.366667 2.53333,5.483333 3,6.35 v 0 0.1 l 0.3,-0.1 v 0 c -0.53333,-8.4 -0.8,-16.633333 -0.8,-24.7 v 0 -26.4 0 c 0,-2.266667 0.38333,-3.883333 1.15,-4.85 v 0 0 c 0.76667,-0.966667 2.18333,-1.45 4.25,-1.45 v 0 h 3.2 l 0.7,0.5 v 68.1 0 c -1.86667,0.33333333 -3.93333,0.5 -6.2,0.5 v 0 0 c -2.26667,0 -4.23333,-0.13333333 -5.9,-0.4 v 0 l -21.9,-42.7 v 0 c -2,-3.933333 -4.16667,-8.533333 -6.5,-13.8 z m 96.1,11.4 v -2.35 0 c -0.17241,-2.050764 -0.63085,-3.8697 -1.15,-5.4 v 0 0 c -0.76667,-2.233333 -2.28333,-4.216667 -4.55,-5.95 v 0 0 c -2.26667,-1.733333 -5.13333,-2.6 -8.6,-2.6 v 0 0 c -5.4,0 -9.5,2.333333 -12.3,7 v 0 0 c -2.8,4.666667 -4.2,11.35 -4.2,20.05 v 0 0 c 0,8.7 1.5,15.366667 4.5,20 v 0 0 c 3,4.6333333 7.26667,6.95 12.8,6.95 v 0 0 c 5.53333,0 11.4,-2.5666667 17.6,-7.7 v 0 0 c 2.66667,1.733333 4.33333,3.9 5,6.5 v 0 0 c -2.86667,2.9333333 -6.46667,5.3166667 -10.8,7.15 v 0 0 c -4.33333,1.83333333 -8.85,2.75 -13.55,2.75 v 0 0 c -4.7,0 -8.76667,-0.98333333 -12.2,-2.95 v 0 0 c -3.43333,-1.9666667 -6.15,-4.6166667 -8.15,-7.95 v 0 0 c -3.8,-6.6 -5.7,-14.666667 -5.7,-24.2 v 0 0 c 0,-11.8 2.56667,-20.716667 7.7,-26.75 v 0 0 c 5.13333,-6.033333 11.43333,-9.05 18.9,-9.05 v 0 0 c 7.46667,0 13.41667,1.933333 17.85,5.8 v 0 0 c 4.43333,3.866667 6.65,8.4 6.65,13.6 v 0 0 c 0,3.8 -1.9,5.7 -5.7,5.7 v 0 0 c -1.2,0 -2.56667,-0.2 -4.1,-0.6 z m 44,0.4 v 0 l 9.3,-23.6 v 0 c 1.13333,-0.333333 2.51667,-0.5 4.15,-0.5 v 0 0 c 1.63333,0 3.28333,0.233333 4.95,0.7 v 0 l 0.5,0.7 -19,45.4 V 0 0 c -1.33333,0.26666667 -3.01667,0.4 -5.05,0.4 v 0 0 c -2.03333,0 -3.68333,-0.13333333 -4.95,-0.4 v 0 -22.2 l -19,-45 v 0 c 2.13333,-1.2 4.05,-1.8 5.75,-1.8 v 0 0 c 1.7,0 2.96667,0.35 3.8,1.05 v 0 0 c 0.83333,0.7 1.55,1.816667 2.15,3.35 v 0 l 8.3,20.1 v 0 c 1.06667,2.666667 2.46667,6.766667 4.2,12.3 v 0 h 0.5 v 0 c 1.06667,-3.666667 2.53333,-7.833333 4.4,-12.5 z"
             id="path92"
             inkscape:connector-curvature="0"
             style="fill:url(#linearGradientSjlz3vnhcp)"
             sodipodi:nodetypes="ccccccccccccccccccccccccccccccccccccccccccccccccccccccccccccccccccccccccccccccccccccccccccccccccccccccccccccccccccccccccccccccccccccccccccccccccccccccccccccccccccccccccccccccccccccccccccccccccccccccccccccccccccccccccccccccccccccccccccccccccccccccccccccccccccccccccccccccccccccccccccccccccccccccccccccccccccccccccccccccccccccccccccccccccccccccccccccccccccccccccccccccccccccccccccccccccccccccccccccccccccccccccccccccccccccccccccccccccccccccccccccccccccccccccccccccccccccccccccccccccccccccc" />
        </g>
        <path
           style="fill:none"
           id="path96"
           d=""
           inkscape:connector-curvature="0" />
      </svg>
    </g>
  </g>
  <g
     aria-label="USE OUR CPU, NOT YOURS"
     style="font-style:normal;font-variant:normal;font-weight:normal;font-stretch:normal;font-size:19.20000076px;line-height:1.25;font-family:Arimo;-inkscape-font-specification:Arimo;letter-spacing:3.83999991px;word-spacing:3.5999999px;fill:#bf0a30;fill-opacity:1;stroke:none;stroke-width:0.12"
     id="text4572">
    <path
       d="m 191.2327,74.165672 q -1.35157,0 -2.35938,-0.492187 -1.00781,-0.492188 -1.5625,-1.429688 -0.55469,-0.9375 -0.55469,-2.234375 V 63.00161 h 1.49219 v 6.882812 q 0,1.507813 0.76563,2.289063 0.76562,0.78125 2.21093,0.78125 1.48438,0 2.30469,-0.804688 0.82813,-0.8125 0.82813,-2.367187 v -6.78125 h 1.48437 v 6.867187 q 0,1.335938 -0.57031,2.304688 -0.5625,0.96875 -1.60156,1.484375 -1.03125,0.507812 -2.4375,0.507812 z"
       style="font-style:normal;font-variant:normal;font-weight:normal;font-stretch:normal;font-size:16px;font-family:Arimo;-inkscape-font-specification:Arimo;letter-spacing:5.63999987px;word-spacing:3.5999999px;fill:#bf0a30;fill-opacity:1;stroke-width:0.12"
       id="path4798" />
    <path
       d="m 212.66176,70.97036 q 0,1.523437 -1.19531,2.359375 -1.1875,0.835937 -3.35157,0.835937 -4.02343,0 -4.66406,-2.796875 l 1.44531,-0.289062 q 0.25,0.992187 1.0625,1.460937 0.8125,0.460938 2.21094,0.460938 1.44531,0 2.22656,-0.492188 0.78907,-0.5 0.78907,-1.460937 0,-0.539063 -0.25,-0.875 -0.24219,-0.335938 -0.6875,-0.554688 -0.44532,-0.21875 -1.0625,-0.367187 -0.61719,-0.148438 -1.36719,-0.320313 -1.30469,-0.289062 -1.98438,-0.578125 -0.67187,-0.289062 -1.0625,-0.640625 -0.39062,-0.359375 -0.60156,-0.835937 -0.20312,-0.476563 -0.20312,-1.09375 0,-1.414063 1.07812,-2.179688 1.08594,-0.765625 3.10156,-0.765625 1.875,0 2.86719,0.578125 0.99219,0.570313 1.39063,1.953125 l -1.46875,0.257813 q -0.24219,-0.875 -0.92188,-1.265625 -0.67969,-0.398438 -1.88281,-0.398438 -1.32031,0 -2.01563,0.4375 -0.69531,0.4375 -0.69531,1.304688 0,0.507812 0.26563,0.84375 0.27343,0.328125 0.78125,0.5625 0.50781,0.226562 2.02343,0.5625 0.50782,0.117187 1.00782,0.242187 0.50781,0.117188 0.96875,0.289063 0.46093,0.164062 0.85937,0.390625 0.40625,0.226562 0.70313,0.554687 0.29687,0.328125 0.46093,0.773438 0.17188,0.445312 0.17188,1.046875 z"
       style="font-style:normal;font-variant:normal;font-weight:normal;font-stretch:normal;font-size:16px;font-family:Arimo;-inkscape-font-specification:Arimo;letter-spacing:5.63999987px;word-spacing:3.5999999px;fill:#bf0a30;fill-opacity:1;stroke-width:0.12"
       id="path4800" />
    <path
       d="M 220.36426,74.009422 V 63.00161 h 8.35156 v 1.21875 h -6.85937 v 3.53125 h 6.39062 v 1.203125 h -6.39062 v 3.835937 h 7.17968 v 1.21875 z"
       style="font-style:normal;font-variant:normal;font-weight:normal;font-stretch:normal;font-size:16px;font-family:Arimo;-inkscape-font-specification:Arimo;letter-spacing:5.63999987px;word-spacing:3.5999999px;fill:#bf0a30;fill-opacity:1;stroke-width:0.12"
       id="path4802" />
    <path
       d="m 260.73645,68.454735 q 0,1.726562 -0.66407,3.023437 -0.65625,1.296875 -1.89062,1.992188 -1.23438,0.695312 -2.91406,0.695312 -1.69532,0 -2.92969,-0.6875 -1.22656,-0.6875 -1.875,-1.984375 -0.64844,-1.304687 -0.64844,-3.039062 0,-2.640625 1.44531,-4.125 1.44532,-1.492188 4.02344,-1.492188 1.67969,0 2.91406,0.671875 1.23438,0.664063 1.88282,1.9375 0.65625,1.273438 0.65625,3.007813 z m -1.52344,0 q 0,-2.054688 -1.03125,-3.226563 -1.02344,-1.171875 -2.89844,-1.171875 -1.89062,0 -2.92187,1.15625 -1.03125,1.15625 -1.03125,3.242188 0,2.070312 1.03906,3.289062 1.04687,1.210938 2.89844,1.210938 1.90625,0 2.92187,-1.171875 1.02344,-1.179688 1.02344,-3.328125 z"
       style="font-style:normal;font-variant:normal;font-weight:normal;font-stretch:normal;font-size:16px;font-family:Arimo;-inkscape-font-specification:Arimo;letter-spacing:5.63999987px;word-spacing:3.5999999px;fill:#bf0a30;fill-opacity:1;stroke-width:0.12"
       id="path4804" />
    <path
       d="m 272.8452,74.165672 q -1.35156,0 -2.35938,-0.492187 -1.00781,-0.492188 -1.5625,-1.429688 -0.55468,-0.9375 -0.55468,-2.234375 V 63.00161 h 1.49218 v 6.882812 q 0,1.507813 0.76563,2.289063 0.76562,0.78125 2.21094,0.78125 1.48437,0 2.30468,-0.804688 0.82813,-0.8125 0.82813,-2.367187 v -6.78125 h 1.48437 v 6.867187 q 0,1.335938 -0.57031,2.304688 -0.5625,0.96875 -1.60156,1.484375 -1.03125,0.507812 -2.4375,0.507812 z"
       style="font-style:normal;font-variant:normal;font-weight:normal;font-stretch:normal;font-size:16px;font-family:Arimo;-inkscape-font-specification:Arimo;letter-spacing:5.63999987px;word-spacing:3.5999999px;fill:#bf0a30;fill-opacity:1;stroke-width:0.12"
       id="path4806" />
    <path
       d="m 293.43051,74.009422 -2.85937,-4.570312 h -3.42969 v 4.570312 h -1.49219 V 63.00161 h 5.17969 q 1.85937,0 2.86719,0.835937 1.01562,0.828125 1.01562,2.3125 0,1.226563 -0.71875,2.0625 -0.71094,0.835938 -1.96875,1.054688 l 3.125,4.742187 z m -0.21875,-7.84375 q 0,-0.960937 -0.65625,-1.460937 -0.64844,-0.507813 -1.875,-0.507813 h -3.53906 v 4.0625 h 3.60156 q 1.17969,0 1.82031,-0.546875 0.64844,-0.554687 0.64844,-1.546875 z"
       style="font-style:normal;font-variant:normal;font-weight:normal;font-stretch:normal;font-size:16px;font-family:Arimo;-inkscape-font-specification:Arimo;letter-spacing:5.63999987px;word-spacing:3.5999999px;fill:#bf0a30;fill-opacity:1;stroke-width:0.12"
       id="path4808" />
    <path
       d="m 321.40425,64.056297 q -1.82812,0 -2.84375,1.179688 -1.01562,1.171875 -1.01562,3.21875 0,2.023437 1.05468,3.257812 1.0625,1.226563 2.86719,1.226563 2.3125,0 3.47656,-2.289063 l 1.21875,0.609375 q -0.67968,1.421875 -1.91406,2.164063 -1.22656,0.742187 -2.85156,0.742187 -1.66406,0 -2.88281,-0.6875 -1.21094,-0.695312 -1.85157,-1.976562 -0.63281,-1.289063 -0.63281,-3.046875 0,-2.632813 1.42188,-4.125 1.42187,-1.492188 3.9375,-1.492188 1.75781,0 2.9375,0.6875 1.17968,0.6875 1.73437,2.039063 l -1.41406,0.46875 q -0.38281,-0.960938 -1.23438,-1.46875 -0.84375,-0.507813 -2.00781,-0.507813 z"
       style="font-style:normal;font-variant:normal;font-weight:normal;font-stretch:normal;font-size:16px;font-family:Arimo;-inkscape-font-specification:Arimo;letter-spacing:5.63999987px;word-spacing:3.5999999px;fill:#bf0a30;fill-opacity:1;stroke-width:0.12"
       id="path4810" />
    <path
       d="m 342.24738,66.31411 q 0,1.5625 -1.02344,2.484375 -1.01563,0.921875 -2.76563,0.921875 h -3.23437 v 4.289062 h -1.49219 V 63.00161 h 4.63281 q 1.85157,0 2.86719,0.867187 1.01563,0.867188 1.01563,2.445313 z m -1.5,0.01563 q 0,-2.132813 -2.5625,-2.132813 h -2.96094 v 4.34375 h 3.02344 q 2.5,0 2.5,-2.210937 z"
       style="font-style:normal;font-variant:normal;font-weight:normal;font-stretch:normal;font-size:16px;font-family:Arimo;-inkscape-font-specification:Arimo;letter-spacing:5.63999987px;word-spacing:3.5999999px;fill:#bf0a30;fill-opacity:1;stroke-width:0.12"
       id="path4812" />
    <path
       d="m 354.4577,74.165672 q -1.35156,0 -2.35937,-0.492187 -1.00781,-0.492188 -1.5625,-1.429688 -0.55469,-0.9375 -0.55469,-2.234375 V 63.00161 h 1.49219 v 6.882812 q 0,1.507813 0.76562,2.289063 0.76563,0.78125 2.21094,0.78125 1.48438,0 2.30469,-0.804688 0.82812,-0.8125 0.82812,-2.367187 v -6.78125 h 1.48438 v 6.867187 q 0,1.335938 -0.57031,2.304688 -0.5625,0.96875 -1.60157,1.484375 -1.03125,0.507812 -2.4375,0.507812 z"
       style="font-style:normal;font-variant:normal;font-weight:normal;font-stretch:normal;font-size:16px;font-family:Arimo;-inkscape-font-specification:Arimo;letter-spacing:5.63999987px;word-spacing:3.5999999px;fill:#bf0a30;fill-opacity:1;stroke-width:0.12"
       id="path4814" />
    <path
       d="m 368.95708,72.298485 v 1.3125 q 0,0.828125 -0.14844,1.382812 -0.14844,0.554688 -0.46094,1.0625 h -0.96094 q 0.73438,-1.0625 0.73438,-2.046875 h -0.6875 v -1.710937 z"
       style="font-style:normal;font-variant:normal;font-weight:normal;font-stretch:normal;font-size:16px;font-family:Arimo;-inkscape-font-specification:Arimo;letter-spacing:5.63999987px;word-spacing:3.5999999px;fill:#bf0a30;fill-opacity:1;stroke-width:0.12"
       id="path4816" />
    <path
       d="m 398.15738,74.009422 -5.89063,-9.375 0.0391,0.757813 0.0391,1.304687 v 7.3125 h -1.32813 V 63.00161 h 1.73438 l 5.95312,9.4375 q -0.0937,-1.53125 -0.0937,-2.21875 v -7.21875 h 1.34375 v 11.007812 z"
       style="font-style:normal;font-variant:normal;font-weight:normal;font-stretch:normal;font-size:16px;font-family:Arimo;-inkscape-font-specification:Arimo;letter-spacing:5.63999987px;word-spacing:3.5999999px;fill:#bf0a30;fill-opacity:1;stroke-width:0.12"
       id="path4818" />
    <path
       d="m 418.58644,68.454735 q 0,1.726562 -0.66406,3.023437 -0.65625,1.296875 -1.89063,1.992188 -1.23437,0.695312 -2.91406,0.695312 -1.69531,0 -2.92969,-0.6875 -1.22656,-0.6875 -1.875,-1.984375 -0.64843,-1.304687 -0.64843,-3.039062 0,-2.640625 1.44531,-4.125 1.44531,-1.492188 4.02344,-1.492188 1.67968,0 2.91406,0.671875 1.23437,0.664063 1.88281,1.9375 0.65625,1.273438 0.65625,3.007813 z m -1.52344,0 q 0,-2.054688 -1.03125,-3.226563 -1.02343,-1.171875 -2.89843,-1.171875 -1.89063,0 -2.92188,1.15625 -1.03125,1.15625 -1.03125,3.242188 0,2.070312 1.03906,3.289062 1.04688,1.210938 2.89844,1.210938 1.90625,0 2.92188,-1.171875 1.02343,-1.179688 1.02343,-3.328125 z"
       style="font-style:normal;font-variant:normal;font-weight:normal;font-stretch:normal;font-size:16px;font-family:Arimo;-inkscape-font-specification:Arimo;letter-spacing:5.63999987px;word-spacing:3.5999999px;fill:#bf0a30;fill-opacity:1;stroke-width:0.12"
       id="path4820" />
    <path
       d="m 430.60925,64.22036 v 9.789062 h -1.48437 V 64.22036 h -3.78125 v -1.21875 h 9.04687 v 1.21875 z"
       style="font-style:normal;font-variant:normal;font-weight:normal;font-stretch:normal;font-size:16px;font-family:Arimo;-inkscape-font-specification:Arimo;letter-spacing:5.63999987px;word-spacing:3.5999999px;fill:#bf0a30;fill-opacity:1;stroke-width:0.12"
       id="path4822" />
    <path
       d="m 459.59082,69.446922 v 4.5625 h -1.48437 v -4.5625 l -4.23438,-6.445312 h 1.64063 l 3.35156,5.242187 3.33594,-5.242187 h 1.64062 z"
       style="font-style:normal;font-variant:normal;font-weight:normal;font-stretch:normal;font-size:16px;font-family:Arimo;-inkscape-font-specification:Arimo;letter-spacing:5.63999987px;word-spacing:3.5999999px;fill:#bf0a30;fill-opacity:1;stroke-width:0.12"
       id="path4824" />
    <path
       d="m 481.52768,68.454735 q 0,1.726562 -0.66406,3.023437 -0.65625,1.296875 -1.89063,1.992188 -1.23437,0.695312 -2.91406,0.695312 -1.69531,0 -2.92969,-0.6875 -1.22656,-0.6875 -1.875,-1.984375 -0.64844,-1.304687 -0.64844,-3.039062 0,-2.640625 1.44532,-4.125 1.44531,-1.492188 4.02343,-1.492188 1.67969,0 2.91407,0.671875 1.23437,0.664063 1.88281,1.9375 0.65625,1.273438 0.65625,3.007813 z m -1.52344,0 q 0,-2.054688 -1.03125,-3.226563 -1.02344,-1.171875 -2.89844,-1.171875 -1.89062,0 -2.92187,1.15625 -1.03125,1.15625 -1.03125,3.242188 0,2.070312 1.03906,3.289062 1.04688,1.210938 2.89844,1.210938 1.90625,0 2.92187,-1.171875 1.02344,-1.179688 1.02344,-3.328125 z"
       style="font-style:normal;font-variant:normal;font-weight:normal;font-stretch:normal;font-size:16px;font-family:Arimo;-inkscape-font-specification:Arimo;letter-spacing:5.63999987px;word-spacing:3.5999999px;fill:#bf0a30;fill-opacity:1;stroke-width:0.12"
       id="path4826" />
    <path
       d="m 493.63644,74.165672 q -1.35156,0 -2.35937,-0.492187 -1.00781,-0.492188 -1.5625,-1.429688 -0.55469,-0.9375 -0.55469,-2.234375 V 63.00161 h 1.49219 v 6.882812 q 0,1.507813 0.76562,2.289063 0.76563,0.78125 2.21094,0.78125 1.48438,0 2.30469,-0.804688 0.82812,-0.8125 0.82812,-2.367187 v -6.78125 h 1.48438 v 6.867187 q 0,1.335938 -0.57031,2.304688 -0.5625,0.96875 -1.60157,1.484375 -1.03125,0.507812 -2.4375,0.507812 z"
       style="font-style:normal;font-variant:normal;font-weight:normal;font-stretch:normal;font-size:16px;font-family:Arimo;-inkscape-font-specification:Arimo;letter-spacing:5.63999987px;word-spacing:3.5999999px;fill:#bf0a30;fill-opacity:1;stroke-width:0.12"
       id="path4828" />
    <path
       d="M 514.22177,74.009422 511.3624,69.43911 h -3.42969 v 4.570312 h -1.49219 V 63.00161 h 5.17969 q 1.85937,0 2.86719,0.835937 1.01562,0.828125 1.01562,2.3125 0,1.226563 -0.71875,2.0625 -0.71094,0.835938 -1.96875,1.054688 l 3.125,4.742187 z m -0.21875,-7.84375 q 0,-0.960937 -0.65625,-1.460937 -0.64844,-0.507813 -1.875,-0.507813 h -3.53906 v 4.0625 h 3.60156 q 1.17969,0 1.82031,-0.546875 0.64844,-0.554687 0.64844,-1.546875 z"
       style="font-style:normal;font-variant:normal;font-weight:normal;font-stretch:normal;font-size:16px;font-family:Arimo;-inkscape-font-specification:Arimo;letter-spacing:5.63999987px;word-spacing:3.5999999px;fill:#bf0a30;fill-opacity:1;stroke-width:0.12"
       id="path4830" />
    <path
       d="m 532.26801,70.97036 q 0,1.523437 -1.19532,2.359375 -1.1875,0.835937 -3.35156,0.835937 -4.02344,0 -4.66406,-2.796875 l 1.44531,-0.289062 q 0.25,0.992187 1.0625,1.460937 0.8125,0.460938 2.21094,0.460938 1.44531,0 2.22656,-0.492188 0.78906,-0.5 0.78906,-1.460937 0,-0.539063 -0.25,-0.875 -0.24218,-0.335938 -0.6875,-0.554688 -0.44531,-0.21875 -1.0625,-0.367187 -0.61718,-0.148438 -1.36718,-0.320313 -1.30469,-0.289062 -1.98438,-0.578125 -0.67187,-0.289062 -1.0625,-0.640625 -0.39062,-0.359375 -0.60156,-0.835937 -0.20313,-0.476563 -0.20313,-1.09375 0,-1.414063 1.07813,-2.179688 1.08594,-0.765625 3.10156,-0.765625 1.875,0 2.86719,0.578125 0.99219,0.570313 1.39062,1.953125 l -1.46875,0.257813 q -0.24218,-0.875 -0.92187,-1.265625 -0.67969,-0.398438 -1.88281,-0.398438 -1.32032,0 -2.01563,0.4375 -0.69531,0.4375 -0.69531,1.304688 0,0.507812 0.26562,0.84375 0.27344,0.328125 0.78125,0.5625 0.50782,0.226562 2.02344,0.5625 0.50781,0.117187 1.00781,0.242187 0.50782,0.117188 0.96875,0.289063 0.46094,0.164062 0.85938,0.390625 0.40625,0.226562 0.70312,0.554687 0.29688,0.328125 0.46094,0.773438 0.17188,0.445312 0.17188,1.046875 z"
       style="font-style:normal;font-variant:normal;font-weight:normal;font-stretch:normal;font-size:16px;font-family:Arimo;-inkscape-font-specification:Arimo;letter-spacing:5.63999987px;word-spacing:3.5999999px;fill:#bf0a30;fill-opacity:1;stroke-width:0.12"
       id="path4832" />
  </g>
</svg>
