<?xml version="1.0" encoding="utf-8"?>
<!-- Generator: Adobe Illustrator 16.0.0, SVG Export Plug-In . SVG Version: 6.00 Build 0)  -->
<!DOCTYPE svg PUBLIC "-//W3C//DTD SVG 1.1//EN" "http://www.w3.org/Graphics/SVG/1.1/DTD/svg11.dtd">
<svg version="1.1" id="Layer_1" xmlns="http://www.w3.org/2000/svg" xmlns:xlink="http://www.w3.org/1999/xlink" x="0px" y="0px"
	 width="1280px" height="1024px" viewBox="0 0 1280 1024" enable-background="new 0 0 1280 1024" xml:space="preserve">
<g>
	<defs>
		<rect id="SVGID_1_" width="1280" height="1024"/>
	</defs>
	<clipPath id="SVGID_2_">
		<use xlink:href="#SVGID_1_"  overflow="visible"/>
	</clipPath>
	<path clip-path="url(#SVGID_2_)" fill="#FFFFFF" d="M1123,512c0,266.754-216.246,483-483,483c-266.753,0-483-216.246-483-483
		c0-266.753,216.247-483,483-483C906.754,29,1123,245.247,1123,512"/>
	<path clip-path="url(#SVGID_2_)" fill="#5BAAD7" d="M360.054,632.19c32.847-128.402,165.728-179.166,165.728-179.166
		c-61.215-100.034-61.215-194.096-31.354-274.72c29.861-80.624,83.61-119.444,104.513-135.867
		c4.532-3.561,11.739-8.106,21.042-12.993C362.516,39.944,157,251.955,157,512c0,207.636,131.028,384.65,314.901,452.92
		C327.235,885.68,327.442,759.675,360.054,632.19"/>
	<path clip-path="url(#SVGID_2_)" fill="#878787" d="M873.613,91.527c0.025,0.114,0.041,0.187,0.041,0.187
		s31.355,40.313,41.806,97.048c10.451,56.736-1.493,113.472-28.368,150.798c-26.875,37.326-46.284,37.326-61.215,35.833
		c-14.931-1.493-62.708-28.368-37.327-53.75C813.933,296.262,820.364,275.014,829,228c9-49-13.575-113.89-68.816-119.862
		c-55.243-5.972-126.909,49.27-131.388,186.631c-4.479,137.36,95.554,203.054,97.046,204.547c1.494,1.493,0,2.986-1.492,4.479
		c-56.735,14.93-80.624,37.326-101.526,55.243c-20.903,17.916-61.215,68.679-80.625,131.388
		c-19.409,62.707-26.875,204.547,104.514,212.013c131.388,7.465,179.165-71.666,186.63-74.652
		c7.466-2.987,14.931-5.973,16.424,8.958c1.494,14.93-39.677,61.406-62.708,82.117C768,936,697.506,988.713,598.009,994.796
		c13.353,1.108,26.852,1.704,40.491,1.704c266.754,0,483-216.246,483-483C1121.5,332.106,1021.487,174.096,873.613,91.527"/>
</g>
</svg>
