<svg xmlns="http://www.w3.org/2000/svg" xmlns:xlink="http://www.w3.org/1999/xlink" viewBox="0 0 440 521.66"><defs><style>.cls-1{fill:url(#linear-gradient);}.cls-2{fill:url(#linear-gradient-2);}.cls-3{fill:url(#linear-gradient-3);}.cls-4{fill:url(#linear-gradient-4);}</style><linearGradient id="linear-gradient" x1="220" y1="462.28" x2="220" y2="75.98" gradientUnits="userSpaceOnUse"><stop offset="0.15" stop-color="#53caec"/><stop offset="1" stop-color="#dbe200"/></linearGradient><linearGradient id="linear-gradient-2" x1="57.16" y1="113.76" x2="57.16" y2="53.42" xlink:href="#linear-gradient"/><linearGradient id="linear-gradient-3" x1="104.82" y1="113.76" x2="104.82" y2="53.42" xlink:href="#linear-gradient"/><linearGradient id="linear-gradient-4" x1="220" y1="0" x2="220" y2="521.66" xlink:href="#linear-gradient"/></defs><title>svgAsset 1</title><g id="Layer_2" data-name="Layer 2"><g id="Layer_1-2" data-name="Layer 1"><path class="cls-1" d="M385.45,170.72,222.5,76.65a4.6,4.6,0,0,0-.59-.29,1.13,1.13,0,0,0-.24-.08,2.43,2.43,0,0,0-.38-.13l-.34-.07-.3-.06a4.72,4.72,0,0,0-1.3,0l-.3.06-.34.07a2.55,2.55,0,0,0-.39.13.9.9,0,0,0-.23.08,4.6,4.6,0,0,0-.59.29L54.55,170.72a5,5,0,0,0-2.5,4.33V363.21a5,5,0,0,0,2.5,4.33l163,94.07a4.6,4.6,0,0,0,.59.29,1.55,1.55,0,0,0,.23.08,2.55,2.55,0,0,0,.39.13l.34.07a2.65,2.65,0,0,0,.3.06,5.3,5.3,0,0,0,1.3,0,2.65,2.65,0,0,0,.3-.06l.34-.07a3,3,0,0,0,.39-.13,1,1,0,0,0,.23-.08,4.6,4.6,0,0,0,.59-.29l163-94.07a5,5,0,0,0,2.5-4.33V175.05A5,5,0,0,0,385.45,170.72ZM233.67,94.64l142.53,82.3-47.49,82.19Zm89.27,174.49L220,447.29,117.06,269.13,220,91Zm-211.65-10L63.8,176.94l142.53-82.3Zm-5.78,10L62.06,344.35V193.91Zm5.78,10,95,164.49L63.8,361.32Zm217.42,0,47.49,82.19-142.53,82.3Zm5.78-10,43.45-75.22V344.35Z"/><path class="cls-2" d="M52.05,51.8H62.26v56.55H52.05Z"/><path class="cls-3" d="M78.93,51.8H98.85c18.69,0,31.86,11.69,31.86,28.24s-13.17,28.31-31.86,28.31H78.93Zm21,47.25c11.94,0,20.33-7.9,20.33-19S111.86,61.1,99.92,61.1H89.22V99.05Z"/><path class="cls-4" d="M220,521.66a5,5,0,0,1-2.5-.67L2.5,396.87A5,5,0,0,1,0,392.53V5A5,5,0,0,1,5,0H435a5,5,0,0,1,5,5V392.53a5,5,0,0,1-2.5,4.34L222.5,521A5,5,0,0,1,220,521.66Zm-210-132L220,510.87,430,389.64V10H10Z"/></g></g></svg>