<?xml version="1.0" standalone="no"?>
<!DOCTYPE svg PUBLIC "-//W3C//DTD SVG 20010904//EN"
 "http://www.w3.org/TR/2001/REC-SVG-20010904/DTD/svg10.dtd">
<svg version="1.0" xmlns="http://www.w3.org/2000/svg"
 width="180.000000pt" height="180.000000pt" viewBox="0 0 180.000000 180.000000"
 preserveAspectRatio="xMidYMid meet">
<metadata>
Created by potrace 1.11, written by Peter Selinger 2001-2013
</metadata>
<g transform="translate(0.000000,180.000000) scale(0.100000,-0.100000)"
fill="#000000" stroke="none">
<path d="M724 1560 c-193 -50 -361 -187 -449 -365 -94 -191 -89 -424 13 -620
40 -76 168 -215 234 -253 l37 -21 -29 41 c-110 151 -63 433 93 561 23 19 57
42 75 51 17 9 32 20 32 25 0 5 -11 33 -25 63 -75 164 -41 359 84 489 55 57 49
59 -65 29z"/>
<path d="M1277 1454 c71 -127 18 -354 -82 -354 -21 0 -44 9 -62 24 l-28 24 22
29 c98 123 65 303 -56 303 -112 0 -194 -164 -169 -341 10 -73 38 -131 90 -185
l39 -41 -65 -32 c-107 -53 -179 -153 -207 -289 -15 -71 -3 -154 28 -197 66
-90 259 -85 370 10 47 40 53 42 53 16 0 -24 -88 -122 -136 -152 -19 -12 -56
-30 -82 -41 l-47 -19 60 7 c261 26 500 223 580 477 73 230 17 483 -146 660
-51 56 -164 147 -183 147 -2 0 7 -21 21 -46z"/>
</g>
</svg>
